<svg xmlns="http://www.w3.org/2000/svg" viewBox="0 0 1080 1080"><defs><style>.cls-1{fill:#212d34;}.cls-2{fill:#09c880;}</style></defs><g id="Dark"><path class="cls-1" d="M950.09,263.49,813.67,184.73V422l-69.09,39.91L521.27,590.81,335.42,698.1V934.86l34.23,19.82L539.92,1053H540L983.73,796.79V282.89ZM813.67,698.32l-69.09,39.91L521.27,867.16V787.44L744.58,658.51l69.09-39.91Z"/><polygon class="cls-2" points="710.78 125.32 521.27 234.74 335.42 342.04 266.33 381.9 96.27 480.11 96.27 283.47 266.33 185.26 335.42 145.41 521.27 38.11 540.5 27 710.78 125.32"/><polygon class="cls-2" points="744.58 185.53 744.58 382.16 521.27 511.09 335.42 618.39 266.33 658.25 96.27 756.46 96.27 559.82 266.33 461.61 335.42 421.75 521.27 314.46 744.58 185.53"/><polygon class="cls-2" points="266.33 737.96 266.33 895 130.34 816.51 266.33 737.96"/></g></svg>